<svg xmlns="http://www.w3.org/2000/svg" viewBox="0 0 256 256" role="img" aria-label="SD logo">
  <rect width="256" height="256" rx="56" fill="#0A0A0A"/>
  <rect x="20" y="20" width="216" height="216" rx="46" fill="none" stroke="#C6FF00" stroke-width="6" opacity="0.9"/>
  <path d="M86 78c0-16 12-26 31-26h37c26 0 42 14 42 35 0 16-9 27-24 31 18 4 29 17 29 36 0 25-19 42-49 42h-40c-22 0-36-11-36-28 0-10 5-18 14-23 8-4 14-5 27-5h30c13 0 21-6 21-16 0-9-6-15-17-15H117c-20 0-31-10-31-31Zm29 17h34c11 0 17-5 17-13 0-8-6-13-16-13h-27c-10 0-15 4-15 12 0 8 4 14 7 14Zm0 74h39c12 0 19-6 19-16 0-10-7-16-20-16h-38c-11 0-16 5-16 15 0 10 6 17 16 17Z" fill="#F8F8F8"/>
  <path d="M154 176c-11 8-25 12-41 12-34 0-58-22-58-55 0-35 25-59 60-59 17 0 32 4 43 12" fill="none" stroke="#C6FF00" stroke-width="12" stroke-linecap="round" opacity="0.3"/>
</svg>
